<?xml version="1.0" encoding="utf-8"?>
<svg id="Capa_1" xmlns="http://www.w3.org/2000/svg" version="1.1" viewBox="91.319 96.684 989.839 157.072" xmlns:bx="https://boxy-svg.com" width="989.839px" height="157.072px"><defs><style>
      .st0 {
        fill: #001923;
      }

      .st1 {
        fill: #e3e2da;
      }
    </style><bx:export><bx:file format="svg" path="dark.svg"/></bx:export><linearGradient id="Degradado_sin_nombre_27" data-name="Degradado sin nombre 27" x1="387.7" y1="174.8" x2="1065.6" y2="174.8" gradientUnits="userSpaceOnUse" gradientTransform="matrix(1, 0, 0, 1, -0.90802, -3.534561)"><stop offset="0" stop-color="#001a2a"/><stop offset="0.8" stop-color="#00b0bd"/></linearGradient><linearGradient id="Degradado_sin_nombre_426" data-name="Degradado sin nombre 426" x1="108.5" y1="211.6" x2="329" y2="211.6" gradientUnits="userSpaceOnUse"><stop offset="0.2" stop-color="#00b0bd"/><stop offset="0.9" stop-color="#001923"/></linearGradient><linearGradient id="Degradado_sin_nombre_4261" data-name="Degradado sin nombre 426" x1="108.5" y1="143.7" x2="329" y2="143.7" href="#Degradado_sin_nombre_426"/></defs><path class="st2" d="M 737.194 120.966 L 757.594 120.966 L 789.594 181.066 L 791.294 181.066 L 823.494 120.966 L 843.694 120.966 L 843.694 227.266 L 828.094 227.266 L 828.094 143.466 L 826.294 143.466 L 796.994 198.766 L 783.594 198.766 L 754.394 143.466 L 752.694 143.466 L 752.694 227.266 L 737.194 227.266 L 737.194 120.966 Z M 871.094 161.666 L 853.594 161.666 L 853.594 147.666 L 886.294 147.666 L 886.294 227.266 L 871.094 227.266 L 871.094 161.666 Z M 867.994 124.466 C 867.994 118.666 872.894 114.166 878.594 114.166 C 884.294 114.166 889.094 118.766 889.094 124.466 C 889.094 130.166 884.394 134.766 878.594 134.766 C 872.794 134.766 867.994 130.366 867.994 124.466 Z M 902.494 147.666 L 914.294 147.666 C 916.394 147.666 917.494 148.766 917.494 150.866 L 917.494 158.266 L 919.294 158.266 C 925.794 150.566 933.594 146.466 944.494 146.466 C 962.094 146.466 973.694 157.666 973.694 177.566 L 973.694 227.266 L 958.494 227.266 L 958.494 181.566 C 958.494 167.466 951.194 160.266 939.794 160.266 C 928.394 160.266 917.594 167.866 917.594 184.066 L 917.594 227.166 L 902.394 227.166 L 902.394 147.566 L 902.494 147.666 Z M 984.494 187.466 C 984.494 163.166 1001.09 146.466 1021.69 146.466 C 1042.29 146.466 1042.39 151.366 1047.69 158.266 L 1049.49 158.266 L 1049.49 116.366 L 1064.69 116.366 L 1064.69 227.266 L 1052.89 227.266 C 1050.79 227.266 1049.59 226.166 1049.59 224.066 L 1049.59 216.666 L 1047.89 216.666 C 1041.19 224.866 1032.89 228.466 1021.79 228.466 C 1001.09 228.466 984.594 211.766 984.594 187.466 L 984.494 187.466 Z M 1049.79 187.466 C 1049.79 170.866 1039.49 159.866 1024.89 159.866 C 1010.29 159.866 999.794 170.966 999.794 187.466 C 999.794 203.966 1010.29 214.966 1024.89 214.966 C 1039.49 214.966 1049.79 203.866 1049.79 187.466 Z M 386.794 120.966 L 402.694 120.966 L 402.694 227.266 L 386.794 227.266 L 386.794 120.966 Z M 420.294 147.666 L 432.094 147.666 C 434.194 147.666 435.294 148.766 435.294 150.866 L 435.294 158.266 L 437.094 158.266 C 443.594 150.566 451.394 146.466 462.294 146.466 C 479.894 146.466 491.494 157.666 491.494 177.566 L 491.494 227.266 L 476.294 227.266 L 476.294 181.566 C 476.294 167.466 468.994 160.266 457.594 160.266 C 446.194 160.266 435.394 167.866 435.394 184.066 L 435.394 227.166 L 420.194 227.166 L 420.194 147.566 L 420.294 147.666 Z M 502.294 187.466 C 502.294 163.166 518.894 146.466 539.494 146.466 C 560.094 146.466 560.194 151.366 565.494 158.266 L 567.294 158.266 L 567.294 116.366 L 582.494 116.366 L 582.494 227.266 L 570.694 227.266 C 568.594 227.266 567.394 226.166 567.394 224.066 L 567.394 216.666 L 565.694 216.666 C 558.994 224.866 550.694 228.466 539.594 228.466 C 518.894 228.466 502.394 211.766 502.394 187.466 L 502.294 187.466 Z M 567.594 187.466 C 567.594 170.866 557.294 159.866 542.694 159.866 C 528.094 159.866 517.594 170.966 517.594 187.466 C 517.594 203.966 528.094 214.966 542.694 214.966 C 557.294 214.966 567.594 203.866 567.594 187.466 Z M 598.594 147.666 L 610.394 147.666 C 612.494 147.666 613.594 148.766 613.594 150.866 L 613.594 158.266 L 615.394 158.266 C 620.094 151.166 626.494 147.666 635.594 147.666 L 644.394 147.666 L 644.394 161.666 L 634.494 161.666 C 620.494 161.666 613.694 170.366 613.694 187.366 L 613.694 227.266 L 598.494 227.266 L 598.494 147.666 L 598.594 147.666 Z M 647.094 204.466 C 647.094 189.466 658.294 180.666 677.194 180.666 L 699.094 180.666 C 701.394 180.666 702.594 179.466 702.594 177.166 L 702.594 176.266 C 702.594 165.466 696.094 159.266 684.194 159.266 C 672.294 159.266 666.094 164.466 664.894 172.766 L 649.094 172.766 C 650.794 156.566 664.094 146.466 684.294 146.466 C 704.494 146.466 717.594 157.666 717.594 177.466 L 717.594 227.266 L 705.894 227.266 C 703.894 227.266 702.694 226.166 702.694 224.066 L 702.694 216.666 L 700.994 216.666 C 694.594 224.366 686.394 228.466 674.894 228.466 C 657.994 228.466 647.094 218.766 647.094 204.466 Z M 702.594 193.966 L 702.594 191.666 L 677.794 191.666 C 667.894 191.666 662.294 195.966 662.294 203.666 C 662.294 211.366 668.094 216.266 677.894 216.266 C 692.294 216.266 702.494 206.666 702.494 193.966 L 702.594 193.966 Z" style="fill: url(&quot;#Degradado_sin_nombre_27&quot;); stroke-width: 1;"/><g transform="matrix(1, 0, 0, 1, -0.908, -3.534554)"><path class="st1" d="M329,235l-6.5,1.7s-79.5-24.2-103.8-25.9c-24.2,1.7-103.8,25.9-103.8,25.9l-6.5-1.7s69.2-47.5,110.3-48.5c41.1.9,110.3,48.5,110.3,48.5Z" style="fill: url(&quot;#Degradado_sin_nombre_426&quot;);"/><path class="st0" d="M329,120.3l-6.5-1.7s-79.5,24.2-103.8,25.9c-24.2-1.7-103.8-25.9-103.8-25.9l-6.5,1.7s69.2,47.5,110.3,48.5c41.1-.9,110.3-48.5,110.3-48.5Z" style="fill: url(&quot;#Degradado_sin_nombre_4261&quot;);"/></g></svg>